<?xml version="1.0" encoding="utf-8"?>
<!-- Generator: Adobe Illustrator 27.5.0, SVG Export Plug-In . SVG Version: 6.00 Build 0)  -->
<svg version="1.1" id="Layer_1" xmlns="http://www.w3.org/2000/svg" xmlns:xlink="http://www.w3.org/1999/xlink" x="0px" y="0px"
	 viewBox="0 0 4000 4000" style="enable-background:new 0 0 4000 4000;" xml:space="preserve">
<rect style="fill:#FFFFFF;" width="4000" height="4000"/>
<g>
	<g>
		<defs>
			<path id="SVGID_1_" d="M2231.487,1929.11l-229.207,55.746c82.079,76.768,253.639,44.906,360.565-2.739
				c-7.139-26.856-11.979-54.051-14.847-81.342L2231.487,1929.11z"/>
		</defs>
		<clipPath id="SVGID_00000087399180922875127220000001222598070208756138_">
			<use xlink:href="#SVGID_1_"  style="overflow:visible;"/>
		</clipPath>
		
			<linearGradient id="SVGID_00000040570993614435590860000003851313620895904414_" gradientUnits="userSpaceOnUse" x1="2209.2913" y1="2024.1049" x2="2080.3574" y2="1817.1371">
			<stop  offset="0" style="stop-color:#008A80"/>
			<stop  offset="1" style="stop-color:#EBF855"/>
		</linearGradient>
		
			<rect x="2002.28" y="1900.775" style="clip-path:url(#SVGID_00000087399180922875127220000001222598070208756138_);fill:url(#SVGID_00000040570993614435590860000003851313620895904414_);" width="360.565" height="160.849"/>
	</g>
	<defs>
		<filter id="Adobe_OpacityMaskFilter" filterUnits="userSpaceOnUse" x="2002.28" y="1900.775" width="349.192" height="89.685">
			<feColorMatrix  type="matrix" values="1 0 0 0 0  0 1 0 0 0  0 0 1 0 0  0 0 0 1 0"/>
		</filter>
	</defs>
	
		<mask maskUnits="userSpaceOnUse" x="2002.28" y="1900.775" width="349.192" height="89.685" id="SVGID_00000053547013743428339850000000747373572175890841_">
		<g style="filter:url(#Adobe_OpacityMaskFilter);">
			
				<linearGradient id="SVGID_00000139254209928277338070000017404687890953052588_" gradientUnits="userSpaceOnUse" x1="909.1288" y1="4620.6758" x2="-89.803" y2="4268.2495" gradientTransform="matrix(1 0 0 1 1567.243 -2569.3945)">
				<stop  offset="0" style="stop-color:#FFFFFF"/>
				<stop  offset="1" style="stop-color:#000000"/>
			</linearGradient>
			
				<rect x="2002.28" y="1900.775" style="fill:url(#SVGID_00000139254209928277338070000017404687890953052588_);" width="349.192" height="89.687"/>
		</g>
	</mask>
	
		<path style="mask:url(#SVGID_00000053547013743428339850000000747373572175890841_);fill-rule:evenodd;clip-rule:evenodd;fill:#005B50;" d="
		M2231.487,1929.11l-229.207,55.746c0,0,195.44,32.073,349.192-57.253c-1.377-8.925-2.531-17.871-3.474-26.828L2231.487,1929.11z"/>
	<g>
		<defs>
			<path id="SVGID_00000039856790168267124060000004923808892902026907_" d="M2153.642,1844.946l-288.641,22.007
				c95.233,123.641,356.843,101.581,487.67,52.387c-5.165-29.478-7.972-59.218-8.776-88.9L2153.642,1844.946z"/>
		</defs>
		<clipPath id="SVGID_00000063635688485569972820000011403311874336127676_">
			<use xlink:href="#SVGID_00000039856790168267124060000004923808892902026907_"  style="overflow:visible;"/>
		</clipPath>
		
			<linearGradient id="SVGID_00000118360082145364957490000009020549245808896163_" gradientUnits="userSpaceOnUse" x1="2104.9133" y1="1911.5482" x2="1730.1481" y2="2010.0863">
			<stop  offset="0" style="stop-color:#008A80"/>
			<stop  offset="1" style="stop-color:#EBF855"/>
		</linearGradient>
		
			<rect x="1865.001" y="1830.44" style="clip-path:url(#SVGID_00000063635688485569972820000011403311874336127676_);fill:url(#SVGID_00000118360082145364957490000009020549245808896163_);" width="487.67" height="160.154"/>
	</g>
	<g>
		<defs>
			<path id="SVGID_00000105404881709611065580000006566935501824412311_" d="M2063.365,1715.134l-366.115-40.774
				c99.305,195.821,495.023,217.106,647.152,169.149c-1.522-32.449-0.636-64.869,2.15-96.84L2063.365,1715.134z"/>
		</defs>
		<clipPath id="SVGID_00000079465982004554847430000004223699395012639650_">
			<use xlink:href="#SVGID_00000105404881709611065580000006566935501824412311_"  style="overflow:visible;"/>
		</clipPath>
		
			<linearGradient id="SVGID_00000109026134075231222230000015182379860019683467_" gradientUnits="userSpaceOnUse" x1="1949.0574" y1="1780.9467" x2="1578.6791" y2="1770.9503">
			<stop  offset="0" style="stop-color:#008A80"/>
			<stop  offset="1" style="stop-color:#EBF855"/>
		</linearGradient>
		
			<rect x="1697.25" y="1674.36" style="clip-path:url(#SVGID_00000079465982004554847430000004223699395012639650_);fill:url(#SVGID_00000109026134075231222230000015182379860019683467_);" width="649.302" height="217.106"/>
	</g>
	<g>
		<defs>
			<path id="SVGID_00000060003351850731299530000010023134408714895550_" d="M2027.933,1558.932l-400.594-133.799
				c68.528,259.808,563.433,377.948,717.823,339.977c1.626-25.581,4.495-50.928,8.368-75.819l-7.103-23.982L2027.933,1558.932z"/>
		</defs>
		<clipPath id="SVGID_00000048477326803038248170000003856413118114268316_">
			<use xlink:href="#SVGID_00000060003351850731299530000010023134408714895550_"  style="overflow:visible;"/>
		</clipPath>
		
			<linearGradient id="SVGID_00000108994236679642004070000010548710935765570945_" gradientUnits="userSpaceOnUse" x1="2042.3372" y1="1624.6183" x2="1484.2689" y2="1511.5962">
			<stop  offset="0" style="stop-color:#008A80"/>
			<stop  offset="1" style="stop-color:#EBF855"/>
		</linearGradient>
		
			<rect x="1627.339" y="1425.133" style="clip-path:url(#SVGID_00000048477326803038248170000003856413118114268316_);fill:url(#SVGID_00000108994236679642004070000010548710935765570945_);" width="726.191" height="377.948"/>
	</g>
	<g>
		<defs>
			<path id="SVGID_00000170978875725731331730000012060584535860684683_" d="M2075.977,1415.889l-361.815-217.868
				c10.579,276.566,495.425,504.998,639.984,487.276c3.327-20.792,7.358-41.228,11.88-61.228l-2.386-34.964L2075.977,1415.889z"/>
		</defs>
		<clipPath id="SVGID_00000051358902877572890800000012815131224323654809_">
			<use xlink:href="#SVGID_00000170978875725731331730000012060584535860684683_"  style="overflow:visible;"/>
		</clipPath>
		
			<linearGradient id="SVGID_00000036955665964067993160000007943152249288194743_" gradientUnits="userSpaceOnUse" x1="2155.2581" y1="1580.74" x2="1741.7318" y2="1113.1494">
			<stop  offset="0" style="stop-color:#008A80"/>
			<stop  offset="1" style="stop-color:#EBF855"/>
		</linearGradient>
		
			<rect x="1714.162" y="1198.021" style="clip-path:url(#SVGID_00000051358902877572890800000012815131224323654809_);fill:url(#SVGID_00000036955665964067993160000007943152249288194743_);" width="651.865" height="504.998"/>
	</g>
	<g>
		<defs>
			<path id="SVGID_00000035501848703014664720000008427529582331528611_" d="M2160.128,1318.551l-294.725-265.997
				c-39.821,256.583,364.863,553.759,502.214,564.467c7.226-30.955,15.664-60.74,24.693-88.923L2160.128,1318.551z"/>
		</defs>
		<clipPath id="SVGID_00000170990994964675554250000001314888694741081729_">
			<use xlink:href="#SVGID_00000035501848703014664720000008427529582331528611_"  style="overflow:visible;"/>
		</clipPath>
		
			<linearGradient id="SVGID_00000099663740557331434410000010130937879850959525_" gradientUnits="userSpaceOnUse" x1="2305.8071" y1="1572.6923" x2="1837.0951" y2="1006.2597">
			<stop  offset="0" style="stop-color:#008A80"/>
			<stop  offset="1" style="stop-color:#EBF855"/>
		</linearGradient>
		
			<rect x="1825.582" y="1052.554" style="clip-path:url(#SVGID_00000170990994964675554250000001314888694741081729_);fill:url(#SVGID_00000099663740557331434410000010130937879850959525_);" width="566.727" height="564.467"/>
	</g>
	<g>
		<defs>
			<path id="SVGID_00000095316121010073756860000001354047564814835876_" d="M2266.083,1256.474l-213.979-281.292
				c-74.612,210.768,208.337,523.322,334.085,572.536c9.898-32.786,20.737-63.594,31.648-91.759L2266.083,1256.474z"/>
		</defs>
		<clipPath id="SVGID_00000173126934224341213870000000737058930717436293_">
			<use xlink:href="#SVGID_00000095316121010073756860000001354047564814835876_"  style="overflow:visible;"/>
		</clipPath>
		
			<linearGradient id="SVGID_00000095327106054733186830000014737734627325570726_" gradientUnits="userSpaceOnUse" x1="2283.7114" y1="1528.1396" x2="2112.2405" y2="996.694">
			<stop  offset="0" style="stop-color:#008A80"/>
			<stop  offset="1" style="stop-color:#EBF855"/>
		</linearGradient>
		
			<rect x="1977.491" y="975.182" style="clip-path:url(#SVGID_00000173126934224341213870000000737058930717436293_);fill:url(#SVGID_00000095327106054733186830000014737734627325570726_);" width="440.346" height="572.536"/>
	</g>
	<g>
		<defs>
			<path id="SVGID_00000084511278257549108470000015008585344540960413_" d="M2401.493,1923.77
				c-27.088-115.273-30.629-265.396,34.719-443.656l-226.836-298.187c0,0,20.997,189.269,103.245,319.781
				c0,0-108.812,230.078-53.333,462.39c23.046,96.501,74.439,193.385,173.752,274.324c33.108-12.621,65.43-30.041,96.609-53.552
				C2529.649,2184.871,2440.792,2090.997,2401.493,1923.77"/>
		</defs>
		<clipPath id="SVGID_00000083782465833069699620000003667443248126415489_">
			<use xlink:href="#SVGID_00000084511278257549108470000015008585344540960413_"  style="overflow:visible;"/>
		</clipPath>
		
			<linearGradient id="SVGID_00000138573301742846379340000008487765407734588592_" gradientUnits="userSpaceOnUse" x1="2326.9736" y1="2014.1097" x2="2396.5413" y2="1482.2563">
			<stop  offset="0" style="stop-color:#00478F"/>
			<stop  offset="1" style="stop-color:#47EADF"/>
		</linearGradient>
		
			<rect x="2203.809" y="1181.928" style="clip-path:url(#SVGID_00000083782465833069699620000003667443248126415489_);fill:url(#SVGID_00000138573301742846379340000008487765407734588592_);" width="325.84" height="1056.495"/>
	</g>
	<defs>
		
			<filter id="Adobe_OpacityMaskFilter_00000005258219785809177130000003353470112916972444_" filterUnits="userSpaceOnUse" x="2209.376" y="1181.928" width="320.272" height="1019.399">
			<feColorMatrix  type="matrix" values="1 0 0 0 0  0 1 0 0 0  0 0 1 0 0  0 0 0 1 0"/>
		</filter>
	</defs>
	
		<mask maskUnits="userSpaceOnUse" x="2209.376" y="1181.928" width="320.272" height="1019.399" id="SVGID_00000106828302898875275590000013611606541748726165_">
		<g style="filter:url(#Adobe_OpacityMaskFilter_00000005258219785809177130000003353470112916972444_);">
			
				<linearGradient id="SVGID_00000044865726963560496080000007971607681419947415_" gradientUnits="userSpaceOnUse" x1="711.1675" y1="3686.0674" x2="829.7992" y2="4614.8198" gradientTransform="matrix(1 0 0 1 1587.5457 -2548.7224)">
				<stop  offset="0" style="stop-color:#FFFFFF"/>
				<stop  offset="1" style="stop-color:#000000"/>
			</linearGradient>
			
				<rect x="2209.376" y="1181.928" style="fill:url(#SVGID_00000044865726963560496080000007971607681419947415_);" width="320.274" height="1019.399"/>
		</g>
	</mask>
	
		<path style="mask:url(#SVGID_00000106828302898875275590000013611606541748726165_);fill-rule:evenodd;clip-rule:evenodd;fill:#5EF9F6;" d="
		M2401.493,1923.77c-27.088-115.273-30.629-265.396,34.719-443.656l-226.836-298.187c0,0,109.635,165.317,191.884,295.826
		c0,0-108.813,230.081-53.335,462.393c21.811,91.331,69.023,183.003,158.213,261.18c7.903-5.12,15.744-10.599,23.51-16.456
		C2529.649,2184.871,2440.792,2090.997,2401.493,1923.77"/>
	<defs>
		
			<filter id="Adobe_OpacityMaskFilter_00000005977334857534198540000013245679368478325893_" filterUnits="userSpaceOnUse" x="1865.403" y="1052.554" width="446.822" height="467.934">
			<feColorMatrix  type="matrix" values="1 0 0 0 0  0 1 0 0 0  0 0 1 0 0  0 0 0 1 0"/>
		</filter>
	</defs>
	
		<mask maskUnits="userSpaceOnUse" x="1865.403" y="1052.554" width="446.822" height="467.934" id="SVGID_00000137810748396585731500000001080850558613006006_">
		<g style="filter:url(#Adobe_OpacityMaskFilter_00000005977334857534198540000013245679368478325893_);">
			
				<linearGradient id="SVGID_00000122681946061383599090000018419281883325725594_" gradientUnits="userSpaceOnUse" x1="914.5914" y1="4036.0371" x2="120.7888" y2="3755.7271" gradientTransform="matrix(1 0 0 1 1553.8243 -2615.4683)">
				<stop  offset="0" style="stop-color:#FFFFFF"/>
				<stop  offset="1" style="stop-color:#000000"/>
			</linearGradient>
			
				<rect x="1865.403" y="1052.557" style="fill:url(#SVGID_00000122681946061383599090000018419281883325725594_);" width="446.822" height="467.931"/>
		</g>
	</mask>
	
		<path style="mask:url(#SVGID_00000137810748396585731500000001080850558613006006_);fill-rule:evenodd;clip-rule:evenodd;fill:#005B50;" d="
		M1865.403,1052.554c0,0,130.857,312.036,439.148,467.934c3.904-9.613,6.683-15.766,7.674-17.921
		c-65.099-50.489-141.393-132.853-196.66-224.239L1865.403,1052.554z"/>
	<defs>
		
			<filter id="Adobe_OpacityMaskFilter_00000113347929202627190550000017291615052393521567_" filterUnits="userSpaceOnUse" x="1714.162" y="1198.021" width="566.13" height="431.209">
			<feColorMatrix  type="matrix" values="1 0 0 0 0  0 1 0 0 0  0 0 1 0 0  0 0 0 1 0"/>
		</filter>
	</defs>
	
		<mask maskUnits="userSpaceOnUse" x="1714.162" y="1198.021" width="566.13" height="431.209" id="SVGID_00000125589731631494854010000018127493565065840777_">
		<g style="filter:url(#Adobe_OpacityMaskFilter_00000113347929202627190550000017291615052393521567_);">
			
				<linearGradient id="SVGID_00000011009070958845419270000002082728912850960285_" gradientUnits="userSpaceOnUse" x1="1084.4313" y1="4239.3579" x2="85.4995" y2="3886.9316" gradientTransform="matrix(1 0 0 1 1538.9974 -2604.8079)">
				<stop  offset="0" style="stop-color:#FFFFFF"/>
				<stop  offset="1" style="stop-color:#000000"/>
			</linearGradient>
			
				<rect x="1714.162" y="1198.018" style="fill:url(#SVGID_00000011009070958845419270000002082728912850960285_);" width="566.13" height="431.211"/>
		</g>
	</mask>
	
		<path style="mask:url(#SVGID_00000125589731631494854010000018127493565065840777_);fill-rule:evenodd;clip-rule:evenodd;fill:#005B50;" d="
		M2280.291,1589.466c-88.185-41.36-203.545-125.038-290.671-225.578l-275.458-165.867c0,0,274.791,322.453,555.035,431.209
		C2272.812,1615.012,2276.571,1601.709,2280.291,1589.466"/>
	<defs>
		
			<filter id="Adobe_OpacityMaskFilter_00000009562936933188453810000013584949532106223548_" filterUnits="userSpaceOnUse" x="1627.339" y="1425.133" width="631.504" height="282.781">
			<feColorMatrix  type="matrix" values="1 0 0 0 0  0 1 0 0 0  0 0 1 0 0  0 0 0 1 0"/>
		</filter>
	</defs>
	
		<mask maskUnits="userSpaceOnUse" x="1627.339" y="1425.133" width="631.504" height="282.781" id="SVGID_00000004546757863764192460000014935103043904082840_">
		<g style="filter:url(#Adobe_OpacityMaskFilter_00000009562936933188453810000013584949532106223548_);">
			
				<linearGradient id="SVGID_00000076593848079337440430000002407479278331336621_" gradientUnits="userSpaceOnUse" x1="1038.9766" y1="4384.6025" x2="40.0467" y2="4032.1768" gradientTransform="matrix(1 0 0 1 1530.4858 -2597.094)">
				<stop  offset="0" style="stop-color:#FFFFFF"/>
				<stop  offset="1" style="stop-color:#000000"/>
			</linearGradient>
			
				<rect x="1627.339" y="1425.13" style="fill:url(#SVGID_00000076593848079337440430000002407479278331336621_);" width="631.503" height="282.784"/>
		</g>
	</mask>
	
		<path style="mask:url(#SVGID_00000004546757863764192460000014935103043904082840_);fill-rule:evenodd;clip-rule:evenodd;fill:#005B50;" d="
		M1627.339,1425.133c0,0,307.124,232.957,625.634,282.781c1.781-11.304,3.756-22.306,5.87-32.967
		c-85.438-21.093-198.274-70.549-299.095-138.787L1627.339,1425.133z"/>
	<defs>
		
			<filter id="Adobe_OpacityMaskFilter_00000016765488470837050480000004165591080111596176_" filterUnits="userSpaceOnUse" x="1697.25" y="1674.36" width="548.319" height="123.471">
			<feColorMatrix  type="matrix" values="1 0 0 0 0  0 1 0 0 0  0 0 1 0 0  0 0 0 1 0"/>
		</filter>
	</defs>
	
		<mask maskUnits="userSpaceOnUse" x="1697.25" y="1674.36" width="548.319" height="123.471" id="SVGID_00000065046429250578955640000007857398839266008237_">
		<g style="filter:url(#Adobe_OpacityMaskFilter_00000016765488470837050480000004165591080111596176_);">
			
				<linearGradient id="SVGID_00000160870093685804357850000010517361632833275050_" gradientUnits="userSpaceOnUse" x1="982.0051" y1="4517.6514" x2="-16.8266" y2="4165.3271" gradientTransform="matrix(1 0 0 1 1537.3395 -2588.2791)">
				<stop  offset="0" style="stop-color:#FFFFFF"/>
				<stop  offset="1" style="stop-color:#000000"/>
			</linearGradient>
			
				<rect x="1697.25" y="1674.36" style="fill:url(#SVGID_00000160870093685804357850000010517361632833275050_);" width="548.317" height="123.471"/>
		</g>
	</mask>
	
		<path style="mask:url(#SVGID_00000065046429250578955640000007857398839266008237_);fill-rule:evenodd;clip-rule:evenodd;fill:#005B50;" d="
		M1697.25,1674.36c0,0,203.678,147.15,546.939,120.167c0.339-7.827,0.801-15.58,1.38-23.242
		c-86.299-4.455-199.26-27.957-305.444-69.874L1697.25,1674.36z"/>
	<defs>
		
			<filter id="Adobe_OpacityMaskFilter_00000022528204066000805060000008351687247789096353_" filterUnits="userSpaceOnUse" x="1865.001" y="1854.628" width="382.473" height="48.334">
			<feColorMatrix  type="matrix" values="1 0 0 0 0  0 1 0 0 0  0 0 1 0 0  0 0 0 1 0"/>
		</filter>
	</defs>
	
		<mask maskUnits="userSpaceOnUse" x="1865.001" y="1854.628" width="382.473" height="48.334" id="SVGID_00000181084899398912609900000014702532463927439510_">
		<g style="filter:url(#Adobe_OpacityMaskFilter_00000022528204066000805060000008351687247789096353_);">
			
				<linearGradient id="SVGID_00000103259279221748783520000002667104382240983191_" gradientUnits="userSpaceOnUse" x1="930.2222" y1="4607.688" x2="-68.7084" y2="4255.2622" gradientTransform="matrix(1 0 0 1 1553.7849 -2577.9724)">
				<stop  offset="0" style="stop-color:#FFFFFF"/>
				<stop  offset="1" style="stop-color:#000000"/>
			</linearGradient>
			
				<rect x="1865.001" y="1854.631" style="fill:url(#SVGID_00000103259279221748783520000002667104382240983191_);" width="382.473" height="48.333"/>
		</g>
	</mask>
	
		<path style="mask:url(#SVGID_00000181084899398912609900000014702532463927439510_);fill-rule:evenodd;clip-rule:evenodd;fill:#005B50;" d="
		M1865.001,1866.953c0,0,192.769,54.648,382.473,29.301c-1.307-11.553-2.264-23.048-2.91-34.449
		c-64.464,5.94-141.574,4.418-217.935-7.177L1865.001,1866.953z"/>
	<g>
		<defs>
			<path id="SVGID_00000039824616040567712430000003013730449920087956_" d="M1876.336,2884.281
				c175.758-15.859,305.313-331.54,289.829-423.885c-14.382,0.209-28.509-0.017-42.27-0.588L1876.336,2884.281z"/>
		</defs>
		<clipPath id="SVGID_00000045596561712648818670000000676738811111865744_">
			<use xlink:href="#SVGID_00000039824616040567712430000003013730449920087956_"  style="overflow:visible;"/>
		</clipPath>
		
			<linearGradient id="SVGID_00000139269703832477812620000009424034467566179216_" gradientUnits="userSpaceOnUse" x1="1843.1332" y1="2888.1038" x2="2009.5023" y2="2694.7009">
			<stop  offset="0" style="stop-color:#FFCE4B"/>
			<stop  offset="1" style="stop-color:#F856BF"/>
		</linearGradient>
		
			<rect x="1876.336" y="2459.808" style="clip-path:url(#SVGID_00000045596561712648818670000000676738811111865744_);fill:url(#SVGID_00000139269703832477812620000009424034467566179216_);" width="305.313" height="424.472"/>
	</g>
	<g>
		<defs>
			<path id="SVGID_00000117637517772314905240000009374561649866164380_" d="M2039.131,2695.915l-68.857,298.573
				c188-69.389,236.643-453.826,192.343-550.487c-11.716,3.347-23.348,6.383-34.834,9.142l-54.029,92.636L2039.131,2695.915z"/>
		</defs>
		<clipPath id="SVGID_00000013188574502603726790000015893936836969894531_">
			<use xlink:href="#SVGID_00000117637517772314905240000009374561649866164380_"  style="overflow:visible;"/>
		</clipPath>
		
			<linearGradient id="SVGID_00000148622594034591534920000011641537157538313899_" gradientUnits="userSpaceOnUse" x1="1950.2334" y1="2912.0078" x2="2102.5259" y2="2699.8374">
			<stop  offset="0" style="stop-color:#FFCE4B"/>
			<stop  offset="1" style="stop-color:#F856BF"/>
		</linearGradient>
		
			<rect x="1970.274" y="2444.002" style="clip-path:url(#SVGID_00000013188574502603726790000015893936836969894531_);fill:url(#SVGID_00000148622594034591534920000011641537157538313899_);" width="236.643" height="550.487"/>
	</g>
	<g>
		<defs>
			<path id="SVGID_00000173859537159008232710000017558674214784702872_" d="M2095.202,2709.891l6.845,315.109
				c169.905-116.723,121.193-512.332,52.581-597.507c-5.916,3.437-11.832,6.781-17.734,10.026l-45.896,78.695L2095.202,2709.891z"/>
		</defs>
		<clipPath id="SVGID_00000129181642213624086420000010854321738797824421_">
			<use xlink:href="#SVGID_00000173859537159008232710000017558674214784702872_"  style="overflow:visible;"/>
		</clipPath>
		
			<linearGradient id="SVGID_00000107571614676245137800000001946476924327923098_" gradientUnits="userSpaceOnUse" x1="2050.5366" y1="2868.3577" x2="2188.0386" y2="2719.1235">
			<stop  offset="0" style="stop-color:#FFCE4B"/>
			<stop  offset="1" style="stop-color:#F856BF"/>
		</linearGradient>
		
			<rect x="2090.999" y="2427.493" style="clip-path:url(#SVGID_00000129181642213624086420000010854321738797824421_);fill:url(#SVGID_00000107571614676245137800000001946476924327923098_);" width="180.954" height="597.507"/>
	</g>
	<g>
		<defs>
			<path id="SVGID_00000180332606349677012850000010824196029691254926_" d="M2159.698,2684.49l73.183,286.607
				c130.529-142.794,1.975-494.095-78.84-557.387c-2.367,2.229-4.741,4.433-7.119,6.617l-38.028,65.202L2159.698,2684.49z"/>
		</defs>
		<clipPath id="SVGID_00000027581376607356140750000013489786049462766470_">
			<use xlink:href="#SVGID_00000180332606349677012850000010824196029691254926_"  style="overflow:visible;"/>
		</clipPath>
		
			<linearGradient id="SVGID_00000132077346789241717090000001558406842556915856_" gradientUnits="userSpaceOnUse" x1="2180.3889" y1="2825.3628" x2="2244.3462" y2="2672.864">
			<stop  offset="0" style="stop-color:#FFCE4B"/>
			<stop  offset="1" style="stop-color:#F856BF"/>
		</linearGradient>
		
			<rect x="2108.894" y="2413.709" style="clip-path:url(#SVGID_00000027581376607356140750000013489786049462766470_);fill:url(#SVGID_00000132077346789241717090000001558406842556915856_);" width="254.515" height="557.387"/>
	</g>
	<g>
		<defs>
			<path id="SVGID_00000107576361029328622130000003630912845520145085_" d="M2190.867,2626.303l112.748,223.501
				c81.828-141.805-88.48-408.678-166.805-446.243l-1.378,2.012c7.015,8.475,11.49,14.753,11.49,14.753l-32.153,55.129
				L2190.867,2626.303z"/>
		</defs>
		<clipPath id="SVGID_00000092453641470330996070000018342289964314078348_">
			<use xlink:href="#SVGID_00000107576361029328622130000003630912845520145085_"  style="overflow:visible;"/>
		</clipPath>
		
			<linearGradient id="SVGID_00000021832327226157376550000005493594607307308449_" gradientUnits="userSpaceOnUse" x1="2267.0647" y1="2741.6296" x2="2240.8486" y2="2563.9385">
			<stop  offset="0" style="stop-color:#FFCE4B"/>
			<stop  offset="1" style="stop-color:#F856BF"/>
		</linearGradient>
		
			<rect x="2114.769" y="2403.561" style="clip-path:url(#SVGID_00000092453641470330996070000018342289964314078348_);fill:url(#SVGID_00000021832327226157376550000005493594607307308449_);" width="270.673" height="446.243"/>
	</g>
	<g>
		<defs>
			<path id="SVGID_00000174602798563378657420000001116264699846630277_" d="M1834.941,2016.394l-397.692,279.238
				c269.138,106.995,679.099-217.355,787.7-397.577c-29.822-30.763-57.244-63.601-82.398-97.654L1834.941,2016.394z"/>
		</defs>
		<clipPath id="SVGID_00000156553380317091830130000013276074443789757368_">
			<use xlink:href="#SVGID_00000174602798563378657420000001116264699846630277_"  style="overflow:visible;"/>
		</clipPath>
		
			<linearGradient id="SVGID_00000172432140172753336350000000176143509276749453_" gradientUnits="userSpaceOnUse" x1="1761.3848" y1="2159.7764" x2="1386.3137" y2="2473.2363">
			<stop  offset="0" style="stop-color:#008A80"/>
			<stop  offset="1" style="stop-color:#EBF855"/>
		</linearGradient>
		
			<rect x="1437.249" y="1800.401" style="clip-path:url(#SVGID_00000156553380317091830130000013276074443789757368_);fill:url(#SVGID_00000172432140172753336350000000176143509276749453_);" width="787.7" height="602.226"/>
	</g>
	<g>
		<defs>
			<path id="SVGID_00000165949032518233266190000000040367861013395383_" d="M1586.22,1709.419l-548.02,100.329
				c251.864,264.301,930.788,67.03,1058.289-76.675c-14.853-23.464-28.703-47.195-41.688-70.928l-32.875-32.494L1586.22,1709.419z"
				/>
		</defs>
		<clipPath id="SVGID_00000059275646923911234880000001157003184300904097_">
			<use xlink:href="#SVGID_00000165949032518233266190000000040367861013395383_"  style="overflow:visible;"/>
		</clipPath>
		
			<linearGradient id="SVGID_00000019650549505018651110000000950134634208429749_" gradientUnits="userSpaceOnUse" x1="1798.8997" y1="1880.6129" x2="981.8425" y2="1779.1182">
			<stop  offset="0" style="stop-color:#008A80"/>
			<stop  offset="1" style="stop-color:#EBF855"/>
		</linearGradient>
		
			<rect x="1038.2" y="1629.65" style="clip-path:url(#SVGID_00000059275646923911234880000001157003184300904097_);fill:url(#SVGID_00000019650549505018651110000000950134634208429749_);" width="1058.288" height="444.398"/>
	</g>
	<g>
		<defs>
			<path id="SVGID_00000077296120903025626440000008023664614089566104_" d="M1584.488,1539.697l-523.672-5.832
				c184.575,288.532,844.214,229.219,989.407,119.928c-19.873-36.927-37.528-73.749-53.195-109.503L1584.488,1539.697z"/>
		</defs>
		<clipPath id="SVGID_00000087378691885852420070000007218939737168871868_">
			<use xlink:href="#SVGID_00000077296120903025626440000008023664614089566104_"  style="overflow:visible;"/>
		</clipPath>
		
			<linearGradient id="SVGID_00000112630564006284357050000010892631090595024826_" gradientUnits="userSpaceOnUse" x1="1938.634" y1="1738.5427" x2="980.6057" y2="1587.4725">
			<stop  offset="0" style="stop-color:#008A80"/>
			<stop  offset="1" style="stop-color:#EBF855"/>
		</linearGradient>
		
			<rect x="1060.816" y="1533.864" style="clip-path:url(#SVGID_00000087378691885852420070000007218939737168871868_);fill:url(#SVGID_00000112630564006284357050000010892631090595024826_);" width="989.407" height="288.532"/>
	</g>
	<g>
		<defs>
			<path id="SVGID_00000026875905044071991890000003174495583140273288_" d="M2706.127,2073.986c0,0,153.465-16.152,253.619,92.078
				c0,0-14.541-93.692-53.31-121.156c66.833-174.003-135.926-315.196-320.205-284.799
				c-294.45,48.577-535.832,707.548-514.968,950.344C2269.151,2527.339,2636.142,2416.406,2706.127,2073.986"/>
		</defs>
		<clipPath id="SVGID_00000067937490662097751640000003983817325355455679_">
			<use xlink:href="#SVGID_00000026875905044071991890000003174495583140273288_"  style="overflow:visible;"/>
		</clipPath>
		
			<linearGradient id="SVGID_00000155859970214915945840000004173969192913919930_" gradientUnits="userSpaceOnUse" x1="2499.3833" y1="2560.5239" x2="2528.4543" y2="1765.7048">
			<stop  offset="0" style="stop-color:#003780"/>
			<stop  offset="1" style="stop-color:#D820D2"/>
		</linearGradient>
		
			<rect x="2050.4" y="1729.713" style="clip-path:url(#SVGID_00000067937490662097751640000003983817325355455679_);fill:url(#SVGID_00000155859970214915945840000004173969192913919930_);" width="922.871" height="980.742"/>
	</g>
	<path style="fill-rule:evenodd;clip-rule:evenodd;fill:#003780;" d="M2112.205,2426.218
		c86.165-181.128,327.924-213.114,458.63-216.643c-102.667-8.293-191.442-38.653-267.739-81.815
		c-18.797-10.634-36.837-22.045-54.143-34.093c-0.978-0.68-1.952-1.362-2.926-2.047c-5.453,10.19-10.806,20.488-16.057,30.88
		c-26.263,51.996-49.917,106.271-70.474,160.476C2141.16,2331.331,2125.283,2379.634,2112.205,2426.218"/>
	<defs>
		
			<filter id="Adobe_OpacityMaskFilter_00000116225924080159826040000006850075145646622130_" filterUnits="userSpaceOnUse" x="2351.472" y="1755.968" width="559.643" height="171.64">
			<feColorMatrix  type="matrix" values="1 0 0 0 0  0 1 0 0 0  0 0 1 0 0  0 0 0 1 0"/>
		</filter>
	</defs>
	
		<mask maskUnits="userSpaceOnUse" x="2351.472" y="1755.968" width="559.643" height="171.64" id="SVGID_00000078011708062223777320000010833286543039237297_">
		<g style="filter:url(#Adobe_OpacityMaskFilter_00000116225924080159826040000006850075145646622130_);">
			
				<linearGradient id="SVGID_00000163778332493616607170000001344438387578555027_" gradientUnits="userSpaceOnUse" x1="1051.1823" y1="4053.1499" x2="1016.5005" y2="4644.3687" gradientTransform="matrix(1 0 0 1 1601.476 -2575.5564)">
				<stop  offset="0" style="stop-color:#FFFFFF"/>
				<stop  offset="1" style="stop-color:#000000"/>
			</linearGradient>
			
				<rect x="2351.472" y="1755.968" style="fill:url(#SVGID_00000163778332493616607170000001344438387578555027_);" width="559.645" height="171.64"/>
		</g>
	</mask>
	
		<path style="mask:url(#SVGID_00000078011708062223777320000010833286543039237297_);fill-rule:evenodd;clip-rule:evenodd;fill:#FCE2A6;" d="
		M2351.472,1927.608c0,0,286.059-180.109,559.644-3.066c-36.459-112.711-185.924-187.356-324.884-164.433
		C2502.007,1774.006,2422.12,1837.846,2351.472,1927.608"/>
	<g>
		<defs>
			<path id="SVGID_00000173122025096062314670000001102670845066886528_" d="M2187.99,2081.28l-178.037,255.196
				c148.189,4.286,290.06-176.972,354.224-317.43c-30.503-20.329-59.024-43.001-85.683-67.488L2187.99,2081.28z"/>
		</defs>
		<clipPath id="SVGID_00000150094245358084068830000007992913602307617943_">
			<use xlink:href="#SVGID_00000173122025096062314670000001102670845066886528_"  style="overflow:visible;"/>
		</clipPath>
		
			<linearGradient id="SVGID_00000092433875757791727290000017918939450335320487_" gradientUnits="userSpaceOnUse" x1="2257.2463" y1="2167.1379" x2="1949.0905" y2="2075.0271">
			<stop  offset="0" style="stop-color:#008A80"/>
			<stop  offset="1" style="stop-color:#EBF855"/>
		</linearGradient>
		
			<rect x="2009.953" y="1951.558" style="clip-path:url(#SVGID_00000150094245358084068830000007992913602307617943_);fill:url(#SVGID_00000092433875757791727290000017918939450335320487_);" width="354.223" height="389.204"/>
	</g>
	<defs>
		
			<filter id="Adobe_OpacityMaskFilter_00000080893426887529080630000001679013953910854531_" filterUnits="userSpaceOnUse" x="2009.953" y="1951.558" width="295.393" height="384.918">
			<feColorMatrix  type="matrix" values="1 0 0 0 0  0 1 0 0 0  0 0 1 0 0  0 0 0 1 0"/>
		</filter>
	</defs>
	
		<mask maskUnits="userSpaceOnUse" x="2009.953" y="1951.558" width="295.393" height="384.918" id="SVGID_00000114032558651293554750000002265095317741559477_">
		<g style="filter:url(#Adobe_OpacityMaskFilter_00000080893426887529080630000001679013953910854531_);">
			
				<linearGradient id="SVGID_00000155116459216004734290000013104795620017567418_" gradientUnits="userSpaceOnUse" x1="969.7458" y1="4525.939" x2="-325.8174" y2="5049.3252" gradientTransform="matrix(1 0 0 1 1567.9952 -2535.4731)">
				<stop  offset="0" style="stop-color:#FFFFFF"/>
				<stop  offset="1" style="stop-color:#000000"/>
			</linearGradient>
			
				<rect x="2009.953" y="1951.558" style="fill:url(#SVGID_00000155116459216004734290000013104795620017567418_);" width="295.393" height="384.918"/>
		</g>
	</mask>
	
		<path style="mask:url(#SVGID_00000114032558651293554750000002265095317741559477_);fill-rule:evenodd;clip-rule:evenodd;fill:#005B50;" d="
		M2187.99,2081.28l-178.037,255.196c0,0,221.294-138.867,295.393-361.414c-9.153-7.628-18.102-15.47-26.852-23.504L2187.99,2081.28z
		"/>
	<g>
		<defs>
			<path id="SVGID_00000005249305840448552640000017371116819899674302_" d="M2037.536,2065.984l-266.271,273.707
				c202.114,39.158,441.597-211.007,528.055-373.854c-30.841-24.65-59.573-51.61-86.276-80.264L2037.536,2065.984z"/>
		</defs>
		<clipPath id="SVGID_00000066513512234666139400000003281094315526654647_">
			<use xlink:href="#SVGID_00000005249305840448552640000017371116819899674302_"  style="overflow:visible;"/>
		</clipPath>
		
			<linearGradient id="SVGID_00000060750084705284656930000017409596482750615206_" gradientUnits="userSpaceOnUse" x1="2019.5919" y1="2155.6245" x2="1734.8975" y2="2580.1665">
			<stop  offset="0" style="stop-color:#008A80"/>
			<stop  offset="1" style="stop-color:#EBF855"/>
		</linearGradient>
		
			<rect x="1771.265" y="1885.573" style="clip-path:url(#SVGID_00000066513512234666139400000003281094315526654647_);fill:url(#SVGID_00000060750084705284656930000017409596482750615206_);" width="528.055" height="493.276"/>
	</g>
	<g>
		<defs>
			<path id="SVGID_00000050639905986923875360000009936982549379161021_" d="M1663.558,1892.83l-512.989,217.325
				c294.547,197.144,887.148-117.988,1006.702-290.302c-20.717-26.724-40.004-54.292-57.9-82.291l-27.956-17.522L1663.558,1892.83z"
				/>
		</defs>
		<clipPath id="SVGID_00000180356285456244021870000001509982748803855506_">
			<use xlink:href="#SVGID_00000050639905986923875360000009936982549379161021_"  style="overflow:visible;"/>
		</clipPath>
		
			<linearGradient id="SVGID_00000003079528196774784040000007857143728258052736_" gradientUnits="userSpaceOnUse" x1="1744.4745" y1="1961.4347" x2="1093.8895" y2="2336.7112">
			<stop  offset="0" style="stop-color:#008A80"/>
			<stop  offset="1" style="stop-color:#EBF855"/>
		</linearGradient>
		
			<rect x="1150.568" y="1720.04" style="clip-path:url(#SVGID_00000180356285456244021870000001509982748803855506_);fill:url(#SVGID_00000003079528196774784040000007857143728258052736_);" width="1006.702" height="587.259"/>
	</g>
	<g>
		<defs>
			<path id="SVGID_00000109029150251054706850000002572631243451647636_" d="M1635.094,1385.815l-457.158-91.436
				c110.173,273.587,662.837,335.739,830.164,274.653c-18.83-41.066-34.998-80.999-48.796-118.376L1635.094,1385.815z"/>
		</defs>
		<clipPath id="SVGID_00000090990112816870905630000004412611825946556559_">
			<use xlink:href="#SVGID_00000109029150251054706850000002572631243451647636_"  style="overflow:visible;"/>
		</clipPath>
		
			<linearGradient id="SVGID_00000008835971282853510390000010261107107461004672_" gradientUnits="userSpaceOnUse" x1="1889.9851" y1="1638.5171" x2="1256.5363" y2="1262.5267">
			<stop  offset="0" style="stop-color:#008A80"/>
			<stop  offset="1" style="stop-color:#EBF855"/>
		</linearGradient>
		
			<rect x="1177.936" y="1294.38" style="clip-path:url(#SVGID_00000090990112816870905630000004412611825946556559_);fill:url(#SVGID_00000008835971282853510390000010261107107461004672_);" width="830.164" height="335.739"/>
	</g>
	<g>
		<defs>
			<path id="SVGID_00000114070347935554925770000007211512875178015136_" d="M2351.472,1927.608
				c-127.405-90.367-261.945-235.756-352.908-469.1l-484.622-96.924c0,0,185.974,168.868,381.239,226.156
				c0,0,93.204,322.535,350.848,503.88c107.021,75.326,242.418,126.291,411.291,119.659c21.727-41.385,38.495-86.826,48.808-137.293
				C2706.127,2073.986,2536.303,2058.7,2351.472,1927.608"/>
		</defs>
		<clipPath id="SVGID_00000128444752962066207260000017609396809638080696_">
			<use xlink:href="#SVGID_00000114070347935554925770000007211512875178015136_"  style="overflow:visible;"/>
		</clipPath>
		
			<linearGradient id="SVGID_00000025415182998697320910000004785237262331619481_" gradientUnits="userSpaceOnUse" x1="2322.4705" y1="2105.0032" x2="1927.0999" y2="1518.2723">
			<stop  offset="0" style="stop-color:#00478F"/>
			<stop  offset="1" style="stop-color:#47EADF"/>
		</linearGradient>
		
			<rect x="1513.941" y="1361.584" style="clip-path:url(#SVGID_00000128444752962066207260000017609396809638080696_);fill:url(#SVGID_00000025415182998697320910000004785237262331619481_);" width="1192.186" height="856.326"/>
	</g>
	<defs>
		
			<filter id="Adobe_OpacityMaskFilter_00000172412814361235053810000007671942347919616926_" filterUnits="userSpaceOnUse" x="1513.941" y="1361.584" width="1192.186" height="749.206">
			<feColorMatrix  type="matrix" values="1 0 0 0 0  0 1 0 0 0  0 0 1 0 0  0 0 0 1 0"/>
		</filter>
	</defs>
	
		<mask maskUnits="userSpaceOnUse" x="1513.941" y="1361.584" width="1192.186" height="749.206" id="SVGID_00000077318843663864951260000011381052043384020362_">
		<g style="filter:url(#Adobe_OpacityMaskFilter_00000172412814361235053810000007671942347919616926_);">
			
				<linearGradient id="SVGID_00000134946363082615411630000018287773204392757398_" gradientUnits="userSpaceOnUse" x1="35.768" y1="3806.406" x2="963.807" y2="4621.5244" gradientTransform="matrix(1 0 0 1 1519.3689 -2557.5981)">
				<stop  offset="0" style="stop-color:#FFFFFF"/>
				<stop  offset="1" style="stop-color:#000000"/>
			</linearGradient>
			
				<rect x="1513.941" y="1361.584" style="fill:url(#SVGID_00000134946363082615411630000018287773204392757398_);" width="1192.186" height="749.206"/>
		</g>
	</mask>
	
		<path style="mask:url(#SVGID_00000077318843663864951260000011381052043384020362_);fill-rule:evenodd;clip-rule:evenodd;fill:#5EF9F6;" d="
		M2351.472,1927.608c-127.405-90.367-261.945-235.756-352.908-469.1l-484.622-96.924c0,0,252.732,67.81,447.996,125.1
		c0,0,93.207,322.535,350.851,503.875c101.288,71.294,228,120.755,384.449,120.227c3.346-11.966,6.319-24.226,8.889-36.8
		C2706.127,2073.986,2536.303,2058.7,2351.472,1927.608"/>
	<defs>
		
			<filter id="Adobe_OpacityMaskFilter_00000020395999976386434450000003051171278087242668_" filterUnits="userSpaceOnUse" x="1060.816" y="1533.864" width="842.769" height="115.823">
			<feColorMatrix  type="matrix" values="1 0 0 0 0  0 1 0 0 0  0 0 1 0 0  0 0 0 1 0"/>
		</filter>
	</defs>
	
		<mask maskUnits="userSpaceOnUse" x="1060.816" y="1533.864" width="842.769" height="115.823" id="SVGID_00000152960334921453626720000015348569545727564429_">
		<g style="filter:url(#Adobe_OpacityMaskFilter_00000020395999976386434450000003051171278087242668_);">
			
				<linearGradient id="SVGID_00000062184130246488087670000008208324224899328908_" gradientUnits="userSpaceOnUse" x1="510.4436" y1="3991.4785" x2="-519.3942" y2="4407.146" gradientTransform="matrix(1 0 0 1 1474.9469 -2602.8022)">
				<stop  offset="0" style="stop-color:#FFFFFF"/>
				<stop  offset="1" style="stop-color:#000000"/>
			</linearGradient>
			
				<rect x="1060.816" y="1533.864" style="fill:url(#SVGID_00000062184130246488087670000008208324224899328908_);" width="842.769" height="115.824"/>
		</g>
	</mask>
	
		<path style="mask:url(#SVGID_00000152960334921453626720000015348569545727564429_);fill-rule:evenodd;clip-rule:evenodd;fill:#005B50;" d="
		M1060.816,1533.864c0,0,401.784,194.399,842.769,79.494c-4.525-12.912-7.151-21.43-8.05-24.42
		c-108.453,6.888-255.802-7.982-390.23-50.123L1060.816,1533.864z"/>
	<defs>
		
			<filter id="Adobe_OpacityMaskFilter_00000172433873124938696110000003656264748927733892_" filterUnits="userSpaceOnUse" x="1038.2" y="1702.757" width="925.334" height="129.682">
			<feColorMatrix  type="matrix" values="1 0 0 0 0  0 1 0 0 0  0 0 1 0 0  0 0 0 1 0"/>
		</filter>
	</defs>
	
		<mask maskUnits="userSpaceOnUse" x="1038.2" y="1702.757" width="925.334" height="129.682" id="SVGID_00000129163715828264824070000017638393278478204568_">
		<g style="filter:url(#Adobe_OpacityMaskFilter_00000172433873124938696110000003656264748927733892_);">
			
				<linearGradient id="SVGID_00000098187065246678891250000004383223873234336397_" gradientUnits="userSpaceOnUse" x1="842.0934" y1="4023.6594" x2="-453.4709" y2="4547.0464" gradientTransform="matrix(1 0 0 1 1472.7297 -2584.8862)">
				<stop  offset="0" style="stop-color:#FFFFFF"/>
				<stop  offset="1" style="stop-color:#000000"/>
			</linearGradient>
			
				<rect x="1038.2" y="1702.757" style="fill:url(#SVGID_00000098187065246678891250000004383223873234336397_);" width="925.334" height="129.682"/>
		</g>
	</mask>
	
		<path style="mask:url(#SVGID_00000129163715828264824070000017638393278478204568_);fill-rule:evenodd;clip-rule:evenodd;fill:#005B50;" d="
		M1939.801,1702.757c-123.316,36.063-310.452,53.996-484.383,30.606l-417.218,76.384c0,0,553.233,79.066,925.334-57.98
		C1954.703,1734.551,1946.806,1718.115,1939.801,1702.757"/>
	<defs>
		
			<filter id="Adobe_OpacityMaskFilter_00000073003139596345236820000005480238090620790935_" filterUnits="userSpaceOnUse" x="1150.568" y="1806.024" width="865.604" height="304.131">
			<feColorMatrix  type="matrix" values="1 0 0 0 0  0 1 0 0 0  0 0 1 0 0  0 0 0 1 0"/>
		</filter>
	</defs>
	
		<mask maskUnits="userSpaceOnUse" x="1150.568" y="1806.024" width="865.604" height="304.131" id="SVGID_00000175302952876341595140000003251240227410717618_">
		<g style="filter:url(#Adobe_OpacityMaskFilter_00000073003139596345236820000005480238090620790935_);">
			
				<linearGradient id="SVGID_00000172433972974001093510000011294663315637165216_" gradientUnits="userSpaceOnUse" x1="908.8427" y1="4188.8384" x2="-386.7201" y2="4712.2246" gradientTransform="matrix(1 0 0 1 1483.7457 -2557.6604)">
				<stop  offset="0" style="stop-color:#FFFFFF"/>
				<stop  offset="1" style="stop-color:#000000"/>
			</linearGradient>
			
				<rect x="1150.568" y="1806.022" style="fill:url(#SVGID_00000172433972974001093510000011294663315637165216_);" width="865.605" height="304.134"/>
		</g>
	</mask>
	
		<path style="mask:url(#SVGID_00000175302952876341595140000003251240227410717618_);fill-rule:evenodd;clip-rule:evenodd;fill:#005B50;" d="
		M1150.568,2110.156c0,0,507.095-37.671,865.604-266.402c-8.107-12.733-15.758-25.339-22.972-37.729
		c-102.91,53.712-257.679,103.285-416.955,123.798L1150.568,2110.156z"/>
	<defs>
		
			<filter id="Adobe_OpacityMaskFilter_00000071549872480326837640000013265119700273853874_" filterUnits="userSpaceOnUse" x="1437.249" y="1912.89" width="645.833" height="382.742">
			<feColorMatrix  type="matrix" values="1 0 0 0 0  0 1 0 0 0  0 0 1 0 0  0 0 0 1 0"/>
		</filter>
	</defs>
	
		<mask maskUnits="userSpaceOnUse" x="1437.249" y="1912.89" width="645.833" height="382.742" id="SVGID_00000126283948246245072930000007661562028675149990_">
		<g style="filter:url(#Adobe_OpacityMaskFilter_00000071549872480326837640000013265119700273853874_);">
			
				<linearGradient id="SVGID_00000131340782012004218790000014118452629909144473_" gradientUnits="userSpaceOnUse" x1="956.2863" y1="4357.7295" x2="-339.2747" y2="4881.1147" gradientTransform="matrix(1 0 0 1 1511.8503 -2539.4773)">
				<stop  offset="0" style="stop-color:#FFFFFF"/>
				<stop  offset="1" style="stop-color:#000000"/>
			</linearGradient>
			
				<rect x="1437.249" y="1912.89" style="fill:url(#SVGID_00000131340782012004218790000014118452629909144473_);" width="645.833" height="382.742"/>
		</g>
	</mask>
	
		<path style="mask:url(#SVGID_00000126283948246245072930000007661562028675149990_);fill-rule:evenodd;clip-rule:evenodd;fill:#005B50;" d="
		M1437.249,2295.632c0,0,329.888-32.243,645.833-358.55c-6.5-8.036-12.807-16.108-18.925-24.191
		c-89.239,70.923-221.478,146.276-363.084,197.497L1437.249,2295.632z"/>
	<defs>
		
			<filter id="Adobe_OpacityMaskFilter_00000068676726682742840730000001863624544653594537_" filterUnits="userSpaceOnUse" x="1771.265" y="2003.295" width="403.86" height="336.396">
			<feColorMatrix  type="matrix" values="1 0 0 0 0  0 1 0 0 0  0 0 1 0 0  0 0 0 1 0"/>
		</filter>
	</defs>
	
		<mask maskUnits="userSpaceOnUse" x="1771.265" y="2003.295" width="403.86" height="336.396" id="SVGID_00000060011863286659411130000006040840257596149426_">
		<g style="filter:url(#Adobe_OpacityMaskFilter_00000068676726682742840730000001863624544653594537_);">
			
				<linearGradient id="SVGID_00000127722471299513992600000002955689770046039697_" gradientUnits="userSpaceOnUse" x1="976.8416" y1="4485.1265" x2="-318.7213" y2="5008.6152" gradientTransform="matrix(1 0 0 1 1544.5956 -2535.158)">
				<stop  offset="0" style="stop-color:#FFFFFF"/>
				<stop  offset="1" style="stop-color:#000000"/>
			</linearGradient>
			
				<rect x="1771.265" y="2003.295" style="fill:url(#SVGID_00000127722471299513992600000002955689770046039697_);" width="403.86" height="336.396"/>
		</g>
	</mask>
	
		<path style="mask:url(#SVGID_00000060011863286659411130000006040840257596149426_);fill-rule:evenodd;clip-rule:evenodd;fill:#005B50;" d="
		M1771.265,2339.691c0,0,238.355-114.21,403.86-304.863c-11.381-10.288-22.36-20.817-32.947-31.533
		c-58.573,62.144-136.166,127.944-221.812,183.13L1771.265,2339.691z"/>
</g>
</svg>
